<svg width="48" height="27" viewBox="0 0 48 27" fill="none" xmlns="http://www.w3.org/2000/svg">
<path fill-rule="evenodd" clip-rule="evenodd" d="M28.3414 20C29.6129 20 30.7462 20.8015 31.1699 22.0003C31.5832 23.1695 32.6985 24 34 24C35.6569 24 37 22.6569 37 21C37 20.2297 36.7136 19.5335 36.2368 19.0007C35.2173 17.8617 35.2173 16.1383 36.2368 14.9993C36.7136 14.4665 37 13.7703 37 13C37 11.3432 35.6569 10 34 10C32.6985 10 31.5832 10.8305 31.1699 11.9997C30.7462 13.1985 29.6129 14 28.3414 14H11.6586C10.3871 14 9.25377 13.1985 8.83007 11.9997C8.4168 10.8305 7.30153 10 6 10C4.34314 10 3 11.3431 3 13C3 13.7703 3.28637 14.4665 3.76319 14.9993C4.78265 16.1383 4.78265 17.8617 3.76319 19.0007C3.28637 19.5335 3 20.2297 3 21C3 22.6569 4.34314 24 6 24C7.30153 24 8.4168 23.1695 8.83007 22.0003C9.25377 20.8015 10.3871 20 11.6586 20H28.3414ZM11.6586 23C10.8349 25.3304 8.61244 27 6 27C2.68629 27 -1.44847e-07 24.3137 0 21C6.7171e-08 19.4633 0.577706 18.0615 1.52779 17C0.577706 15.9385 2.82519e-07 14.5367 3.49691e-07 13C4.94537e-07 9.68629 2.68629 7 6 7C8.61244 7 10.8349 8.66961 11.6586 11H28.3414C29.1651 8.66961 31.3876 7 34 7C37.3137 7 40 9.68629 40 13C40 14.5367 39.4223 15.9385 38.4722 17C39.4223 18.0615 40 19.4633 40 21C40 24.3137 37.3137 27 34 27C31.3876 27 29.1651 25.3304 28.3414 23H11.6586Z" fill="black"/>
<path fill-rule="evenodd" clip-rule="evenodd" d="M39.4683 18.5271C39.8098 19.2811 40 20.1184 40 21C40 24.3137 37.3137 27 34 27C31.3876 27 29.1651 25.3304 28.3414 23H11.6586C10.8349 25.3304 8.61244 27 6 27C2.68629 27 0 24.3137 0 21C0 19.4633 0.577705 18.0615 1.52779 17C0.577705 15.9385 0 14.5367 0 13C0 9.68629 2.68629 7 6 7C8.61244 7 10.8349 8.66961 11.6586 11H27.1178C27.2875 12.07 27.6358 13.0805 28.1313 14H11.6586C10.3871 14 9.25377 13.1985 8.83007 11.9997C8.4168 10.8305 7.30153 10 6 10C4.34314 10 3 11.3431 3 13C3 13.7703 3.28637 14.4665 3.76319 14.9993C4.78265 16.1383 4.78265 17.8617 3.76319 19.0007C3.28637 19.5335 3 20.2297 3 21C3 22.6569 4.34314 24 6 24C7.30153 24 8.4168 23.1695 8.83007 22.0003C9.25377 20.8015 10.3871 20 11.6586 20H28.3414C29.6129 20 30.7462 20.8015 31.1699 22.0003C31.5832 23.1695 32.6985 24 34 24C35.6569 24 37 22.6569 37 21C37 20.2297 36.7136 19.5335 36.2368 19.0007L36.2329 18.9963C36.3216 18.9988 36.4107 19 36.5 19C37.5366 19 38.5344 18.834 39.4683 18.5271Z" fill="black"/>
<path d="M31.0425 1.85331C30.8476 1.04814 31.3422 0.237404 32.1473 0.0424652C32.9525 -0.152471 33.7632 0.342214 33.9582 1.14738L34.6642 4.06314C34.8591 4.86831 34.3644 5.67905 33.5593 5.87398C32.7541 6.06892 31.9434 5.57423 31.7484 4.76907L31.0425 1.85331Z" fill="black"/>
<path d="M39.8635 2.16521C40.295 1.45803 41.2181 1.23455 41.9252 1.66604C42.6324 2.09754 42.8559 3.02062 42.4244 3.7278L40.8618 6.28872C40.4303 6.9959 39.5072 7.21938 38.8 6.78788C38.0929 6.35639 37.8694 5.43331 38.3009 4.72613L39.8635 2.16521Z" fill="black"/>
<path d="M45.427 8.14525C46.2321 7.95032 47.0429 8.445 47.2378 9.25013C47.4327 10.0553 46.938 10.866 46.1329 11.061L43.2171 11.7669C42.412 11.9618 41.6012 11.4672 41.4063 10.662C41.2113 9.85683 41.706 9.04611 42.5112 8.85118L45.427 8.14525Z" fill="black"/>
<path fill-rule="evenodd" clip-rule="evenodd" d="M22.0129 23H11.6586C10.8349 25.3304 8.61244 27 6 27C2.68629 27 0 24.3137 0 21C0 19.4633 0.577705 18.0615 1.52779 17C0.577705 15.9385 0 14.5367 0 13C0 9.68629 2.68629 7 6 7C8.61244 7 10.8349 8.66961 11.6586 11H27.1178C27.2875 12.07 27.6358 13.0805 28.1313 14H11.6586C10.3871 14 9.25377 13.1985 8.83007 11.9997C8.4168 10.8305 7.30153 10 6 10C4.34314 10 3 11.3431 3 13C3 13.7703 3.28637 14.4665 3.76319 14.9993C4.78265 16.1383 4.78265 17.8617 3.76319 19.0007C3.28637 19.5335 3 20.2297 3 21C3 22.6569 4.34314 24 6 24C7.30153 24 8.4168 23.1695 8.83007 22.0003C9.25377 20.8015 10.3871 20 11.6586 20H22.6655C22.2943 20.9361 22.0676 21.9453 22.0129 23Z" fill="black"/>
<path fill-rule="evenodd" clip-rule="evenodd" d="M9.71327 13.2838C9.31961 12.9487 9.0105 12.5102 8.83007 11.9997C8.4168 10.8305 7.30153 10 6 10C4.34314 10 3 11.3431 3 13C3 13.7703 3.28637 14.4665 3.76319 14.9993C4.78265 16.1383 4.78265 17.8617 3.76319 19.0007C3.28637 19.5335 3 20.2297 3 21C3 22.6569 4.34314 24 6 24C7.30153 24 8.4168 23.1695 8.83007 22.0003C9.0105 21.4898 9.31961 21.0513 9.71327 20.7162C10.1296 21.7556 10.7154 22.709 11.4365 23.5419C10.4796 25.5849 8.40507 27 6 27C2.68629 27 0 24.3137 0 21C0 19.4633 0.577705 18.0615 1.52779 17C0.577705 15.9385 0 14.5367 0 13C0 9.68629 2.68629 7 6 7C8.40508 7 10.4796 8.41508 11.4365 10.4581C10.7154 11.291 10.1296 12.2444 9.71327 13.2838ZM27.1532 11.2086C27.1406 11.1393 27.1288 11.0698 27.1178 11H27.0007C27.0524 11.0688 27.1033 11.1384 27.1532 11.2086Z" fill="black"/>
</svg>
