<svg width="59" height="43" viewBox="0 0 59 43" fill="none" xmlns="http://www.w3.org/2000/svg">
<path fill-rule="evenodd" clip-rule="evenodd" d="M4.6633 16.5897C2.67865 16.1342 0.910679 17.9247 1.40462 19.8899L2.43405 23.9856C2.65328 24.8579 2.42358 25.7816 1.82076 26.4516L1.17411 27.1704C-0.0711161 28.5546 0.419535 30.7459 2.13766 31.4738L23.4171 40.4888C24.4892 40.943 25.7332 40.6694 26.5128 39.8078L36.2702 29.0239C37.3172 27.8669 37.1613 26.0876 35.8844 25.1875C35.0488 24.5985 33.9923 23.8764 32.7236 23.052C30.2253 21.4287 32.9528 17.5278 34.8333 15.3145C35.6583 14.3436 35.8246 12.9437 35.1471 11.8658L28.7604 1.70522C27.7976 0.173646 25.6267 -0.0115719 24.4158 1.33455L10.7353 16.5418C10.0724 17.2787 9.05869 17.5984 8.08989 17.376L4.6633 16.5897ZM29.0227 21.7521C28.8895 20.4879 29.2311 19.295 29.6162 18.3685C30.3888 16.5096 31.7698 14.7181 32.7504 13.5641C32.8066 13.4979 32.8342 13.4227 32.8399 13.3643C32.8426 13.3375 32.84 13.3204 32.8384 13.3128C32.837 13.3067 32.835 13.3035 32.835 13.3035L26.4481 3.14283L12.7676 18.35C11.4417 19.8239 9.41435 20.4632 7.47674 20.0186L4.05015 19.2323L5.07958 23.3279C5.51806 25.0725 5.05865 26.9198 3.85302 28.26L3.20637 28.9788L24.4858 37.9937L34.163 27.2986C33.3775 26.7473 32.398 26.0801 31.2321 25.3225C29.896 24.4542 29.1713 23.1625 29.0227 21.7521Z" fill="#333333"/>
<path d="M20.4524 21.696C20.4524 23.1938 19.2316 24.408 17.7255 24.408C16.2194 24.408 14.9985 23.1938 14.9985 21.696C14.9985 20.1983 16.2194 18.984 17.7255 18.984C19.2316 18.984 20.4524 20.1983 20.4524 21.696Z" fill="#333333"/>
<path fill-rule="evenodd" clip-rule="evenodd" d="M45.5026 8.23323C46.0977 8.69201 46.2063 9.54376 45.745 10.1357L40.7334 16.5664C40.2722 17.1583 39.4156 17.2662 38.8205 16.8075C38.2253 16.3486 38.1168 15.4969 38.5781 14.905L43.5896 8.47433C44.051 7.88241 44.9074 7.77446 45.5026 8.23323Z" fill="#333333"/>
<path fill-rule="evenodd" clip-rule="evenodd" d="M53.0877 27.0484C52.9857 27.7904 52.2982 28.3097 51.5522 28.2084L43.4466 27.1074C42.7005 27.0061 42.1783 26.3224 42.2803 25.5804C42.3822 24.8384 43.0696 24.319 43.8157 24.4203L51.9212 25.5214C52.6673 25.6227 53.1895 26.3064 53.0877 27.0484Z" fill="#333333"/>
<path fill-rule="evenodd" clip-rule="evenodd" d="M51.1029 17.115C51.3876 17.8082 51.0534 18.5998 50.3563 18.8831L42.7832 21.9601C42.086 22.2434 41.29 21.9109 41.0053 21.2177C40.7205 20.5244 41.0547 19.7328 41.7518 19.4495L49.325 16.3725C50.0221 16.0893 50.8181 16.4217 51.1029 17.115Z" fill="#333333"/>
</svg>
