<svg width="20" height="16" viewBox="0 0 20 16" fill="none" xmlns="http://www.w3.org/2000/svg">
<g clip-path="url(#clip0_33_62)">
<path fill-rule="evenodd" clip-rule="evenodd" d="M10 7.27271H11.18C12.4 7.27271 13.0586 8.73016 12.2643 9.67416L11.1086 11.0465C11.2335 11.8605 11.6554 12.5966 12.2899 13.1079C12.9245 13.6192 13.725 13.868 14.5318 13.8048C15.3386 13.7415 16.0923 13.3708 16.6425 12.7667C17.1927 12.1625 17.4989 11.3693 17.5 10.5454C17.5 10.2561 17.6129 9.97863 17.8138 9.77404C18.0147 9.56946 18.2873 9.45452 18.5714 9.45452C18.8556 9.45452 19.1281 9.56946 19.329 9.77404C19.53 9.97863 19.6429 10.2561 19.6429 10.5454C19.6429 11.6902 19.2891 12.806 18.6317 13.7348C17.9742 14.6635 17.0465 15.358 15.9798 15.7201C14.9131 16.0821 13.7616 16.0932 12.6884 15.7519C11.6152 15.4105 10.6746 14.734 10 13.8182C9.32538 14.734 8.38484 15.4105 7.31161 15.7519C6.23839 16.0932 5.08688 16.0821 4.02021 15.7201C2.95354 15.358 2.02578 14.6635 1.36835 13.7348C0.710915 12.806 0.357143 11.6902 0.357143 10.5454C0.357143 10.2561 0.470026 9.97863 0.670958 9.77404C0.871889 9.56946 1.14441 9.45452 1.42857 9.45452C1.71273 9.45452 1.98525 9.56946 2.18619 9.77404C2.38712 9.97863 2.5 10.2561 2.5 10.5454C2.49876 11.3708 2.80384 12.1661 3.35413 12.7722C3.90442 13.3782 4.65929 13.7502 5.46751 13.8135C6.27573 13.8769 7.07763 13.627 7.71256 13.1139C8.34749 12.6008 8.76856 11.8623 8.89143 11.0465L7.73571 9.67416C6.94143 8.73016 7.6 7.27271 8.82143 7.27271H10Z" fill="#333333"/>
<path d="M15 4.36364C16.1835 4.36364 17.1429 3.3868 17.1429 2.18182C17.1429 0.976833 16.1835 0 15 0C13.8165 0 12.8571 0.976833 12.8571 2.18182C12.8571 3.3868 13.8165 4.36364 15 4.36364Z" fill="#333333"/>
<path d="M5 4.36364C6.18347 4.36364 7.14286 3.3868 7.14286 2.18182C7.14286 0.976833 6.18347 0 5 0C3.81653 0 2.85714 0.976833 2.85714 2.18182C2.85714 3.3868 3.81653 4.36364 5 4.36364Z" fill="#333333"/>
</g>
<defs>
<clipPath id="clip0_33_62">
<rect width="20" height="16" fill="white"/>
</clipPath>
</defs>
</svg>
