<svg width="29" height="26" viewBox="0 0 29 26" fill="none" xmlns="http://www.w3.org/2000/svg">
<path fill-rule="evenodd" clip-rule="evenodd" d="M20.847 6.41005C21.4049 5.86332 22.3095 5.86332 22.8673 6.41005L28.5816 12.0101C29.1395 12.5568 29.1395 13.4433 28.5816 13.99L22.8673 19.59C22.3095 20.1367 21.4049 20.1367 20.847 19.59C20.2892 19.0433 20.2892 18.1568 20.847 17.6101L24.1226 14.4H10.4286C9.63957 14.4 9 13.7732 9 13C9 12.2268 9.63957 11.6 10.4286 11.6H24.1226L20.847 8.38995C20.2892 7.84324 20.2892 6.95679 20.847 6.41005Z" fill="#333333"/>
<path fill-rule="evenodd" clip-rule="evenodd" d="M0 1.44444C0 0.646707 0.651229 0 1.45455 0H14.5455C15.3488 0 16 0.646707 16 1.44444V7.22222C16 8.01999 15.3488 8.66667 14.5455 8.66667C13.7421 8.66667 13.0909 8.01999 13.0909 7.22222V2.88889H2.90909V23.1111H13.0909V18.7778C13.0909 17.98 13.7421 17.3333 14.5455 17.3333C15.3488 17.3333 16 17.98 16 18.7778V24.5556C16 25.3533 15.3488 26 14.5455 26H1.45455C0.651229 26 0 25.3533 0 24.5556V1.44444Z" fill="#333333"/>
</svg>
