<svg width="31" height="24" viewBox="0 0 31 24" fill="none" xmlns="http://www.w3.org/2000/svg">
<g clip-path="url(#clip0_26_26)">
<path fill-rule="evenodd" clip-rule="evenodd" d="M15.5 10.9091H17.329C19.22 10.9091 20.2408 13.0952 19.0097 14.5112L17.2183 16.5698C17.412 17.7908 18.0659 18.895 19.0494 19.6619C20.0329 20.4288 21.2738 20.8021 22.5244 20.7072C23.7749 20.6123 24.9431 20.0563 25.7959 19.15C26.6487 18.2438 27.1233 17.054 27.125 15.8181C27.125 15.3842 27.3 14.9679 27.6114 14.6611C27.9229 14.3542 28.3453 14.1818 28.7857 14.1818C29.2262 14.1818 29.6486 14.3542 29.96 14.6611C30.2715 14.9679 30.4464 15.3842 30.4464 15.8181C30.4464 17.5354 29.8981 19.2091 28.8791 20.6021C27.8601 21.9952 26.422 23.0371 24.7687 23.5801C23.1154 24.1231 21.3305 24.1398 19.667 23.6278C18.0035 23.1158 16.5457 22.101 15.5 20.7272C14.4544 22.101 12.9965 23.1158 11.333 23.6278C9.66951 24.1398 7.88468 24.1231 6.23134 23.5801C4.578 23.0371 3.13997 21.9952 2.12095 20.6021C1.10193 19.2091 0.553589 17.5354 0.553589 15.8181C0.553589 15.3842 0.728556 14.9679 1.04 14.6611C1.35145 14.3542 1.77385 14.1818 2.2143 14.1818C2.65475 14.1818 3.07716 14.3542 3.38861 14.6611C3.70005 14.9679 3.87502 15.3842 3.87502 15.8181C3.87309 17.0562 4.34596 18.2492 5.19892 19.1583C6.05187 20.0673 7.22191 20.6252 8.47466 20.7203C9.72741 20.8153 10.9703 20.4405 11.9545 19.6708C12.9386 18.9011 13.5913 17.7935 13.7817 16.5698L11.9904 14.5112C10.7592 13.0952 11.78 10.9091 13.6732 10.9091H15.5Z" fill="#333333"/>
<path d="M23.25 6.54545C25.0844 6.54545 26.5714 5.0802 26.5714 3.27273C26.5714 1.46525 25.0844 0 23.25 0C21.4156 0 19.9286 1.46525 19.9286 3.27273C19.9286 5.0802 21.4156 6.54545 23.25 6.54545Z" fill="#333333"/>
<path d="M7.75002 6.54545C9.58439 6.54545 11.0714 5.0802 11.0714 3.27273C11.0714 1.46525 9.58439 0 7.75002 0C5.91564 0 4.42859 1.46525 4.42859 3.27273C4.42859 5.0802 5.91564 6.54545 7.75002 6.54545Z" fill="#333333"/>
</g>
<defs>
<clipPath id="clip0_26_26">
<rect width="31" height="24" fill="white"/>
</clipPath>
</defs>
</svg>
