<svg width="48" height="48" viewBox="0 0 48 48" fill="none" xmlns="http://www.w3.org/2000/svg">
<path fill-rule="evenodd" clip-rule="evenodd" d="M23.9999 8.57141C24.4545 8.57141 24.8906 8.75202 25.212 9.07351C25.5335 9.39501 25.7141 9.83104 25.7141 10.2857V22.2857H37.7141C38.1688 22.2857 38.6048 22.4663 38.9263 22.7878C39.2478 23.1093 39.4284 23.5453 39.4284 24C39.4284 24.4546 39.2478 24.8907 38.9263 25.2122C38.6048 25.5337 38.1688 25.7143 37.7141 25.7143H25.7141V37.7143C25.7141 38.1689 25.5335 38.605 25.212 38.9265C24.8906 39.2479 24.4545 39.4286 23.9999 39.4286C23.5452 39.4286 23.1092 39.2479 22.7877 38.9265C22.4662 38.605 22.2856 38.1689 22.2856 37.7143V25.7143H10.2856C9.83092 25.7143 9.39488 25.5337 9.07339 25.2122C8.7519 24.8907 8.57129 24.4546 8.57129 24C8.57129 23.5453 8.7519 23.1093 9.07339 22.7878C9.39488 22.4663 9.83092 22.2857 10.2856 22.2857H22.2856V10.2857C22.2856 9.83104 22.4662 9.39501 22.7877 9.07351C23.1092 8.75202 23.5452 8.57141 23.9999 8.57141Z" fill="#333333"/>
</svg>
