<svg width="45" height="45" viewBox="0 0 45 45" fill="none" xmlns="http://www.w3.org/2000/svg">
<path d="M12.8574 24.1071C12.8574 23.2195 12.1378 22.5 11.2502 22.5C10.3626 22.5 9.64307 23.2195 9.64307 24.1071V33.75C9.64307 34.6376 10.3626 35.3571 11.2502 35.3571C12.1378 35.3571 12.8574 34.6376 12.8574 33.75V24.1071Z" fill="#333333"/>
<path d="M24.1074 17.6786C24.1074 16.791 23.3878 16.0714 22.5002 16.0714C21.6126 16.0714 20.8931 16.791 20.8931 17.6786V33.75C20.8931 34.6376 21.6126 35.3571 22.5002 35.3571C23.3878 35.3571 24.1074 34.6376 24.1074 33.75V17.6786Z" fill="#333333"/>
<path d="M35.3574 11.25C35.3574 10.3624 34.6378 9.64282 33.7502 9.64282C32.8626 9.64282 32.1431 10.3624 32.1431 11.25V33.75C32.1431 34.6376 32.8626 35.3571 33.7502 35.3571C34.6378 35.3571 35.3574 34.6376 35.3574 33.75V11.25Z" fill="#333333"/>
</svg>
