<svg width="16" height="10" viewBox="0 0 16 10" fill="none" xmlns="http://www.w3.org/2000/svg">
<g clip-path="url(#clip0_10_654)">
<path d="M1.18989 5.29481C1.09792 5.18688 1.01617 5.08789 0.94519 5C1.01617 4.91211 1.09792 4.81312 1.18989 4.70519C1.57163 4.2572 2.12469 3.66075 2.80914 3.06622C4.19946 1.85858 6.02669 0.75 8.00006 0.75C9.97343 0.75 11.8007 1.85858 13.191 3.06622C13.8755 3.66075 14.4285 4.2572 14.8103 4.70519C14.9022 4.81312 14.984 4.91211 15.055 5C14.984 5.08789 14.9022 5.18688 14.8103 5.29481C14.4285 5.7428 13.8755 6.33925 13.191 6.93378C11.8007 8.14142 9.97343 9.25 8.00006 9.25C6.02669 9.25 4.19946 8.14142 2.80914 6.93378C2.12469 6.33925 1.57163 5.7428 1.18989 5.29481Z" stroke="white" stroke-width="1.5"/>
<path d="M8 7C9.10457 7 10 6.10457 10 5C10 3.89543 9.10457 3 8 3C6.89543 3 6 3.89543 6 5C6 6.10457 6.89543 7 8 7Z" fill="white"/>
</g>
<defs>
<clipPath id="clip0_10_654">
<rect width="16" height="10" fill="white"/>
</clipPath>
</defs>
</svg>
